<svg width="120" height="122" viewBox="0 0 120 122" fill="none" xmlns="http://www.w3.org/2000/svg">
<path d="M112.5 36.041V36.039L85.7579 33.871L76.5119 12.759C76.5119 12.759 76.0509 9.985 70.5039 4.283C64.9549 -1.419 53.7049 0.893 53.7049 0.893C53.7049 0.893 29.8189 5.362 21.9599 7.21C14.0999 9.06 13.7919 17.073 13.7919 17.073L10.7099 39.109L10.0699 43.515C10.0649 43.541 10.0619 43.571 10.0579 43.597L10.0399 43.724H10.0419C10.0019 44.036 9.97892 44.353 9.97892 44.675C9.97892 48.779 13.3059 52.104 17.4089 52.104C21.5119 52.104 24.8379 48.779 24.8379 44.675C24.8379 44.357 24.8169 44.045 24.7769 43.738L29.5109 22.157L41.0679 20.771L39.2789 26.651L49.1769 28.57C50.7969 28.883 51.8649 30.466 51.5519 32.087L44.1399 70.33C43.8629 71.76 42.5989 72.76 41.1919 72.76C41.1199 72.76 41.0459 72.744 40.9719 72.739C40.2439 72.843 39.6809 72.704 39.6809 72.704L30.2809 70.855L27.1989 87.96L3.63892 108.323C1.93792 109.684 0.846924 111.776 0.846924 114.124C0.846924 118.228 4.17292 121.554 8.27592 121.554C10.3109 121.554 12.1539 120.736 13.4959 119.409C13.4959 119.409 41.2209 97.359 43.0709 95.818C44.9209 94.278 45.8439 91.965 45.8439 91.965C45.8439 91.965 50.3849 78.017 51.6229 75.091C52.4709 73.087 56.5549 74.012 56.5549 74.012L79.4399 82.643L87.0549 111.705C87.1369 112.335 87.2969 112.939 87.5279 113.509H87.5299C88.6279 116.237 91.2999 118.163 94.4189 118.163C98.5229 118.163 101.849 114.836 101.849 110.733C101.849 110.134 101.777 109.554 101.642 108.997C100.8 104.032 97.0379 81.951 96.0809 77.171C95.0029 71.777 91.4599 70.237 91.4599 70.237C91.4599 70.237 70.1929 58.682 68.8069 57.91C67.4199 57.14 67.7289 55.136 67.7289 55.136L71.6589 40.805L74.4319 46.661C74.4319 46.661 76.0509 49.935 78.5159 50.052L111.873 50.872C115.977 50.872 119.303 47.546 119.303 43.441C119.303 39.551 116.311 36.36 112.5 36.041Z" fill="#3A3A3A"/>
</svg>
