<svg width="43" height="33" viewBox="0 0 43 33" fill="none" xmlns="http://www.w3.org/2000/svg">
<path d="M18.0981 32.732C26.2191 32.732 33.0431 27.19 34.9981 19.683L40.465 20.497C40.572 20.513 40.6801 20.521 40.7851 20.521C41.8361 20.521 42.7561 19.751 42.9161 18.681C43.0921 17.503 42.2771 16.405 41.1001 16.23L35.5591 15.405C35.5611 15.359 35.5631 15.314 35.5631 15.267C35.5631 15.085 35.5571 14.905 35.5491 14.725C35.5491 14.725 35.0981 8.20703 34.4751 5.48803C33.8541 2.76903 31.9401 2.19203 31.9401 2.19203C22.1701 -0.0199716 12.1681 -0.245972 9.56406 -0.245972C6.96006 -0.245972 6.40605 1.08603 6.40605 1.08603L3.25605 6.08203L3.24606 6.07903C3.17006 6.20003 3.10005 6.32403 3.02705 6.44703L3.00005 6.49003C1.49805 9.07003 0.633057 12.066 0.633057 15.267C0.633057 24.913 8.45305 32.732 18.0981 32.732Z" fill="#3A3A3A"/>
</svg>
