<svg width="43" height="34" viewBox="0 0 43 34" fill="none" xmlns="http://www.w3.org/2000/svg">
<path d="M18.1329 33.767C26.254 33.767 33.0779 28.225 35.0329 20.718L40.4999 21.532C40.6069 21.548 40.7149 21.556 40.8199 21.556C41.8709 21.556 42.7909 20.786 42.9509 19.716C43.1269 18.538 42.312 17.44 41.1349 17.265L35.5939 16.44C35.5959 16.394 35.5979 16.349 35.5979 16.302C35.5979 16.12 35.5919 15.94 35.5839 15.76C35.5839 15.76 35.1329 9.242 34.5099 6.523C33.889 3.804 31.9749 3.227 31.9749 3.227C22.2049 1.015 12.2029 0.789001 9.59995 0.789001C6.99695 0.789001 6.44195 2.121 6.44195 2.121L3.29195 7.117L3.28194 7.114C3.20594 7.236 3.13595 7.359 3.06295 7.482L3.03595 7.525C1.53395 10.105 0.668945 13.101 0.668945 16.302C0.667945 25.948 8.48795 33.767 18.1329 33.767Z" fill="white"/>
</svg>
