<svg width="130" height="122" viewBox="0 0 130 122" fill="none" xmlns="http://www.w3.org/2000/svg">
<path d="M125.535 36.076V36.074L98.7929 33.906L89.5469 12.794C89.5469 12.794 89.0859 10.02 83.5389 4.31797C77.9899 -1.38403 66.7399 0.927973 66.7399 0.927973C66.7399 0.927973 42.8539 5.39697 34.9949 7.24597C27.1349 9.09597 26.8269 17.109 26.8269 17.109L26.1949 21.628L11.0169 18.687C10.8259 18.65 10.6359 18.632 10.4489 18.632C9.04195 18.632 7.77795 19.632 7.50095 21.061L0.0899456 59.303C-0.224054 60.923 0.843946 62.505 2.46495 62.819L53.6609 72.742C53.7759 72.764 53.8909 72.766 54.0069 72.775H54.0089C53.2809 72.879 52.7179 72.74 52.7179 72.74L43.3179 70.891L40.2359 87.996L16.6759 108.359C14.9749 109.72 13.8839 111.812 13.8839 114.16C13.8839 118.264 17.2099 121.59 21.3129 121.59C23.3479 121.59 25.1909 120.772 26.5329 119.445C26.5329 119.445 54.2579 97.395 56.1079 95.854C57.9579 94.314 58.8809 92.001 58.8809 92.001C58.8809 92.001 63.422 78.053 64.66 75.127C65.5079 73.123 69.5919 74.048 69.5919 74.048L92.4769 82.679L100.092 111.741C100.174 112.371 100.334 112.975 100.565 113.545H100.567C101.665 116.273 104.337 118.199 107.456 118.199C111.56 118.199 114.886 114.872 114.886 110.769C114.886 110.17 114.814 109.59 114.679 109.033C113.837 104.068 110.075 81.987 109.118 77.207C108.04 71.813 104.497 70.273 104.497 70.273C104.497 70.273 83.229 58.715 81.8429 57.944C80.4559 57.174 80.7649 55.17 80.7649 55.17L84.6949 40.839L87.4679 46.695C87.4679 46.695 89.087 49.969 91.5519 50.086L124.909 50.906C129.013 50.906 132.339 47.58 132.339 43.475C132.338 39.586 129.346 36.396 125.535 36.076ZM54.1039 20.807L52.3149 26.687L62.2129 28.606L41.9989 24.689L42.5469 22.193L54.1039 20.807ZM51.8549 66.28L6.55095 57.499L12.8209 25.146L25.3629 27.577L23.7449 39.144L23.1049 43.55C23.0999 43.576 23.0969 43.606 23.0929 43.632L23.0749 43.759H23.0769C23.0369 44.071 23.0139 44.388 23.0139 44.71C23.0139 48.814 26.3409 52.139 30.4439 52.139C34.5469 52.139 37.8729 48.814 37.8729 44.71C37.8729 44.392 37.8519 44.08 37.8119 43.773L40.7129 30.55L58.1259 33.924L51.8549 66.28Z" fill="white"/>
</svg>
